HIERARCHY
ROOT Hips
{
  OFFSET 2.26061 22.2878 23.7974
  CHANNELS 6 Xposition Yposition Zposition Zrotation Xrotation Yrotation
  JOINT LeftUpLeg
  {
    OFFSET 8.64259 1.95398 -2.38835
    CHANNELS 3 Zrotation Xrotation Yrotation
    JOINT LeftLeg
    {
      OFFSET 43.7702 0 0
      CHANNELS 3 Zrotation Xrotation Yrotation
      JOINT LeftFoot
      {
        OFFSET 40.6238 0 0
        CHANNELS 3 Zrotation Xrotation Yrotation
        JOINT LeftToeBase
        {
          OFFSET 12.7242 0 0
          CHANNELS 3 Zrotation Xrotation Yrotation
          End Site
          {
            OFFSET 0 0 0
          }
        }
      }
    }
  }
  JOINT RightUpLeg
  {
    OFFSET -8.2249 1.95398 -2.59336
    CHANNELS 3 Zrotation Xrotation Yrotation
    JOINT RightLeg
    {
      OFFSET 43.5653 0 0
      CHANNELS 3 Zrotation Xrotation Yrotation
      JOINT RightFoot
      {
        OFFSET 40.6238 0 0
        CHANNELS 3 Zrotation Xrotation Yrotation
        JOINT RightToeBase
        {
          OFFSET 12.7242 0 0
          CHANNELS 3 Zrotation Xrotation Yrotation
          End Site
          {
            OFFSET 0 0 0
          }
        }
      }
    }
  }
  JOINT Spine
  {
    OFFSET 0.165834 0.87714 6.61349
    CHANNELS 3 Zrotation Xrotation Yrotation
    JOINT Spine1
    {
      OFFSET 7.38963 1.71661e-005 0
      CHANNELS 3 Zrotation Xrotation Yrotation
      JOINT Spine2
      {
        OFFSET 11.9445 1.14441e-005 0
        CHANNELS 3 Zrotation Xrotation Yrotation
        JOINT Spine3
        {
          OFFSET 14.7254 4.19617e-005 0
          CHANNELS 3 Zrotation Xrotation Yrotation
          JOINT Spine4
          {
            OFFSET 10.9679 0 0
            CHANNELS 3 Zrotation Xrotation Yrotation
            JOINT RightShoulder
            {
              OFFSET 2.46616 -1.6653 3.69651
              CHANNELS 3 Zrotation Xrotation Yrotation
              JOINT RightArm
              {
                OFFSET 13.0012 0 0
                CHANNELS 3 Zrotation Xrotation Yrotation
                JOINT RightForeArm
                {
                  OFFSET 28.7848 1.52588e-005 0
                  CHANNELS 3 Zrotation Xrotation Yrotation
                  JOINT RightHand
                  {
                    OFFSET 26.5688 1.52588e-005 0
                    CHANNELS 3 Zrotation Xrotation Yrotation
                    End Site
                    {
                      OFFSET 0 0 0
                    }
                  }
                }
              }
            }
            JOINT LeftShoulder
            {
              OFFSET 2.38034 -1.29275 -3.7523
              CHANNELS 3 Zrotation Xrotation Yrotation
              JOINT LeftArm
              {
                OFFSET 16.3182 6.10351e-005 0
                CHANNELS 3 Zrotation Xrotation Yrotation
                JOINT LeftForeArm
                {
                  OFFSET 27.0901 0 0
                  CHANNELS 3 Zrotation Xrotation Yrotation
                  JOINT LeftHand
                  {
                    OFFSET 24.5451 1.52588e-005 0
                    CHANNELS 3 Zrotation Xrotation Yrotation
                    End Site
                    {
                      OFFSET 0 0 0
                    }
                  }
                }
              }
            }
            JOINT Neck
            {
              OFFSET 5.0226 -0.0266342 0
              CHANNELS 3 Zrotation Xrotation Yrotation
              JOINT Head
              {
                OFFSET 6.69363 2.86102e-005 0
                CHANNELS 3 Zrotation Xrotation Yrotation
                End Site
                {
                  OFFSET 0 0 0
                }
              }
            }
          }
        }
      }
    }
  }
}
MOTION
Frames:	18
Frame Time:	0.0416667
36.8296 97.5257 -244.193 -50.127 -86.4906 -50.7056 -172.953 6.86489 86.9208 -17.2516 13.9178 -1.38887 64.1247 5.35939 7.54796 32.6809 3.10744 -0.714048 175.469 4.41088 91.259 -15.7169 -7.06379 -3.22292 68.6006 -4.27008 -2.27461 31.8566 0.31033 -4.17696 -0.00386577 7.21411 -89.7642 12.4469 0.104612 0.460861 0.77585 0.124798 0.455808 -21.7589 -0.0387242 0.471 -1.7462 -0.0387366 0.470996 92.3648 -48.4585 -97.487 23.175 -21.0418 1.51777 -33.1025 -24.5666 -74.0098 -6.47774 -1.15854 0.283772 -102.381 -51.0422 60.9943 -16.328 29.5217 3.7773 26.7422 8.93552 -71.5433 11.0463 1.69614 11.0267 7.73668 -6.76428 7.44916 -1.65399 -8.08688 -5.12774 
36.9902 97.5737 -244.3 -50.3705 -89.2328 -51.7568 -173.858 4.76605 86.1936 -16.3558 15.2923 -0.869292 63.3865 5.23166 8.08125 32.6509 3.09183 -0.883193 173.983 2.93468 90.2806 -16.4351 -6.57333 -2.56448 69.1034 -4.23287 -2.22569 31.5988 0.332172 -4.80055 -0.323573 7.39438 -89.6421 12.0891 -0.474181 0.763775 0.417908 -0.440109 0.783896 -22.1164 -0.681811 0.585958 -2.10375 -0.681806 0.585965 92.1673 -47.9929 -97.8904 16.7884 -29.6455 -5.02255 -38.4545 -14.0581 -82.6716 7.1148 -0.857654 -10.8559 -101.062 -50.6903 62.7365 -12.0656 35.8389 0.0449908 32.6622 -0.172247 -81.0888 15.42 1.51396 5.76499 7.30607 -8.94789 7.90667 -1.8974 -10.293 -6.16239 
36.6803 97.5419 -244.484 -43.6205 -86.8776 -43.7633 -173.02 7.1235 87.3505 -17.3925 14.5417 -1.08978 64.1563 5.32631 7.68353 32.5667 3.00177 -0.346745 175.414 4.13508 91.6249 -15.0536 -6.58562 -2.82181 68.3199 -4.16327 -2.2313 31.3751 0.307369 -4.25974 -0.195625 7.14765 -89.7782 12.5787 -0.282987 0.47456 0.907622 -0.261817 0.486557 -21.627 -0.412526 0.367587 -1.61435 -0.412528 0.367577 92.8214 -47.0394 -97.0394 10.7066 -35.8531 -12.1111 -23.174 -7.51858 -91.2897 18.0203 -0.152914 -1.5806 -99.9473 -50.0193 64.0888 -10.2647 35.6572 -2.06791 27.6768 -8.43795 -89.1856 13.1471 0.660553 1.07123 8.05271 -7.74919 7.14028 -2.63901 -8.98069 -5.66891 
36.4455 97.5987 -244.507 -51.614 -85.0744 -51.9366 -172.688 7.58203 87.4354 -16.7643 13.4543 -1.50136 63.8366 4.93355 8.01712 32.7669 3.16431 -0.489498 175.562 5.08061 91.6354 -15.058 -8.09981 -2.95547 68.276 -4.21093 -2.26286 30.8981 0.309008 -4.42814 -0.132985 7.0268 -89.7728 12.8203 -0.155272 0.472851 1.14931 -0.134307 0.479213 -21.3854 -0.290204 0.404324 -1.37273 -0.290204 0.40432 93.2895 -45.6795 -96.5448 5.61253 -38.9996 -19.9489 -19.3803 3.07719 -101.884 23.0202 -0.484199 -5.89944 -99.9922 -49.4221 63.8029 -10.9979 29.5177 -0.226059 17.85 -11.812 -98.9027 12.6137 0.333078 -1.15001 8.56522 -4.39202 5.15138 -2.10013 -5.3298 -3.3216 
36.3412 97.6323 -244.45 -58.6646 -84.5843 -59.0448 -172.657 7.07835 87.4545 -16.3472 12.9739 -1.50724 63.6099 4.77888 8.1074 32.8394 3.2356 -0.835402 175.667 4.93041 91.635 -15.1618 -8.62144 -3.13239 67.8019 -4.0121 -2.16749 31.7808 0.308635 -4.20171 -0.198656 7.00758 -89.8072 12.8591 -0.302054 0.421747 1.18815 -0.283206 0.434625 -21.3469 -0.414843 0.311467 -1.33429 -0.414849 0.311464 95.2005 -43.1202 -93.8271 1.24463 -39.9764 -30.3466 -8.75519 7.54029 -114.098 21.513 -0.308227 -7.64117 -100.186 -50.0258 63.7462 -10.6466 21.8987 3.71266 9.70688 -10.9985 -105.704 11.2147 -0.210556 -5.36291 7.5476 -0.657634 1.88169 -0.447962 -0.965755 0.516794 
36.1843 97.6862 -244.365 -65.5367 -84.03 -65.8748 -172.5 6.71816 87.643 -16.5636 12.0576 -1.50315 63.6592 4.54618 7.27683 33.2269 3.51723 -0.346417 175.906 4.476 91.7973 -15.0192 -9.09999 -3.36748 67.7498 -4.04024 -2.18721 31.5151 0.304305 -4.18722 -0.301892 6.98222 -89.7847 12.9104 -0.496142 0.490444 1.2395 -0.47407 0.511803 -21.2961 -0.620609 0.318657 -1.28341 -0.6206 0.318658 96.0902 -43.145 -92.3183 -1.36423 -37.6081 -39.1237 5.83291 4.06365 -124.181 21.8541 -1.61754 -15.4266 -99.3239 -49.911 64.9523 -9.93982 15.7355 7.60817 8.74057 -10.1046 -108.086 8.6024 -0.222973 -5.73412 5.92595 2.74523 -1.31463 0.345775 3.03281 3.11389 
36.0413 97.6384 -244.322 -69.32 -83.4696 -69.6574 -172.882 6.62197 87.4659 -16.8982 10.8549 -1.08154 63.7098 4.67638 7.03241 33.685 3.85744 0.203631 175.957 4.58081 91.8488 -15.5917 -9.4864 -3.42231 68.0448 -4.11183 -2.21211 31.4645 0.302125 -4.10045 -0.258616 6.95484 -89.7927 12.9649 -0.413875 0.464925 1.29396 -0.393013 0.482687 -21.2414 -0.534477 0.31904 -1.22873 -0.534475 0.319041 96.7638 -43.6863 -91.1119 -0.325 -36.4079 -44.679 22.8765 -6.38091 -129.998 23.2488 -3.81127 -23.4385 -99.442 -49.8462 64.7578 -9.31747 12.2629 9.87405 8.96296 -8.91643 -105.282 5.89605 -0.191771 -5.77794 5.38858 4.30879 -2.37254 -0.430434 4.74853 4.02191 
35.8865 97.5956 -244.247 -70.1098 -83.1815 -70.1731 -172.871 6.79335 87.7044 -17.3595 10.387 -0.900997 64.0213 4.9666 7.20604 33.596 3.79717 -0.0983653 176.123 4.60946 92.1804 -15.7302 -9.71972 -3.37369 68.007 -4.10782 -2.21335 31.629 0.314212 -4.3514 -0.133817 6.91113 -89.8588 13.0518 -0.197648 0.306735 1.38085 -0.18396 0.315136 -21.1542 -0.280697 0.233156 -1.1416 -0.2807 0.233151 96.6898 -44.4076 -91.1466 5.05227 -34.9755 -43.8423 32.9558 -14.1364 -131.935 27.3608 -4.89379 -24.3225 -100.147 -50.6316 64.0254 -7.72845 12.5136 9.93167 10.5905 -8.21172 -100.227 5.16285 -0.114486 -4.73356 5.23428 3.1966 -0.974169 -0.662571 3.39795 3.20619 
35.8511 97.5454 -244.194 -65.3592 -83.8946 -65.3362 -173.024 7.09404 87.7018 -17.4152 11.6251 -0.77401 63.7394 5.07985 8.3417 33.7856 3.9656 -0.767147 175.914 4.71931 92.2207 -15.7472 -9.25905 -3.06731 68.3838 -4.22321 -2.25994 31.065 0.312352 -4.46015 -0.201928 6.86627 -89.8682 13.1419 -0.3373 0.305427 1.47099 -0.323523 0.319976 -21.0644 -0.413502 0.189939 -1.05175 -0.413501 0.189939 96.4582 -45.3496 -91.4136 7.50375 -33.1584 -42.4088 32.3144 -12.7803 -128.026 27.5051 -4.85227 -24.3929 -100.395 -50.3303 63.5575 -8.6937 12.7456 10.4874 14.0519 -7.6465 -96.5113 4.85615 0.0189093 -2.64824 4.81246 -0.111368 0.0328903 0.171687 0.000272978 3.09347 
35.6973 97.5738 -244.093 -72.9753 -82.7515 -73.245 -172.595 6.11284 87.6538 -16.6514 10.8336 -1.22512 63.6902 4.83934 8.23596 33.7573 3.9377 -0.568701 176.228 4.35731 92.1045 -15.9193 -10.2787 -3.61814 68.5557 -4.37035 -2.33669 30.9728 0.310905 -4.44529 -0.153394 6.90968 -89.8995 13.0547 -0.25604 0.233057 1.38374 -0.245542 0.244093 -21.1515 -0.314257 0.145325 -1.13883 -0.314248 0.14533 95.581 -44.5281 -92.9739 8.38875 -30.4578 -41.9516 14.4794 -3.10055 -124.502 17.5164 -2.39444 -20.7316 -100.47 -51.0304 63.7083 -10.5191 12.3928 11.613 14.7874 -6.92394 -94.3212 4.8406 -0.0144385 -3.13899 5.23048 -2.43829 3.10379 -0.153153 -2.83373 1.73336 
35.3592 97.5643 -243.917 -83.842 -79.2495 -85.2042 -172.209 3.82687 86.9765 -14.985 7.70312 -2.00804 63.5335 4.743 8.32208 33.546 3.76246 -0.231031 176.844 4.33868 91.4549 -17.972 -13.1436 -5.05295 69.0987 -4.65559 -2.46031 31.345 0.323144 -4.64473 0.258246 6.98805 -89.7656 12.8971 0.625175 0.393397 1.22623 0.641894 0.365501 -21.3091 0.478039 0.563106 -1.29645 0.478042 0.563095 95.206 -44.4509 -93.6071 6.94227 -30.7177 -42.8765 3.55185 3.00435 -124.013 17.4234 -1.47 -16.4607 -101.174 -51.2864 62.8011 -12.4946 12.8167 12.3616 12.1829 -6.36543 -92.7843 4.80652 -0.0677998 -4.0234 5.65933 -3.56468 2.65709 -0.880011 -3.86523 2.69152 
35.2499 97.5744 -243.874 -84.3832 -78.8274 -85.9078 -172.038 3.56447 87.0456 -14.7507 7.186 -2.20205 63.5006 4.44624 7.49288 33.5207 3.73275 0.063522 177.04 4.26895 91.4421 -18.0883 -13.3963 -5.30539 69.1369 -4.70668 -2.48794 31.2034 0.330555 -4.84813 0.455021 6.99404 -89.7612 12.8845 1.01796 0.354732 1.21393 1.03259 0.309582 -21.3233 0.864287 0.644282 -1.31065 0.864283 0.644285 94.1509 -45.0737 -95.2467 5.82883 -33.8905 -41.3821 16.193 -2.63745 -123.883 23.0226 -3.41454 -22.6065 -101.933 -52.1299 62.0464 -13.1954 15.2779 11.3788 11.674 -6.29602 -91.3571 4.59726 -0.125763 -4.94852 6.65714 -2.49385 2.33886 -1.69176 -2.81506 1.7663 
35.0192 97.5553 -243.74 -86.3718 -77.3023 -88.4221 -172.028 2.55871 86.5675 -13.8821 5.98009 -2.46902 63.2289 4.48848 8.48042 33.754 3.9502 -1.07743 177.252 4.37547 91.1158 -19.05 -14.3605 -5.89387 69.5457 -4.87193 -2.55225 31.3677 0.312888 -4.39398 0.748067 7.05582 -89.687 12.76 1.63539 0.431237 1.09001 1.65279 0.358814 -21.4512 1.43017 0.902889 -1.43854 1.43016 0.902871 93.8793 -45.556 -95.6058 5.28436 -38.0149 -41.8019 31.7405 -9.97657 -127.548 25.6226 -4.48116 -24.2267 -101.946 -52.3801 62.1233 -14.0585 16.9176 10.2901 12.9096 -6.46956 -90.9588 3.51054 -0.0858702 -4.2837 8.15819 -0.533284 1.82094 -1.79505 -0.828053 1.48394 
34.6423 97.5505 -243.446 -88.4447 -73.5119 -91.6588 -171.862 0.472253 85.7902 -11.6622 2.63964 -3.30259 62.7706 4.10198 8.00901 33.5774 3.78344 -0.115132 177.862 4.65856 90.3862 -20.9675 -17.4068 -7.40194 70.0662 -5.16108 -2.67002 31.4158 0.322245 -4.61017 1.18755 7.11057 -89.5739 12.6494 2.56231 0.550852 0.980934 2.58407 0.437473 -21.5701 2.27825 1.29581 -1.55743 2.27825 1.29581 94.5963 -44.8924 -94.5445 1.82145 -41.5764 -46.3419 38.7532 -11.8087 -125.525 24.5316 -4.36309 -23.9352 -102.94 -52.6649 60.8432 -15.1534 17.509 10.434 12.8557 -6.48575 -90.7848 4.00895 -0.0685824 -4.00465 7.24225 -0.220185 2.27357 -0.751938 -0.570104 1.57875 
34.0842 97.4511 -243.103 -90.0603 -69.2526 -94.4181 -172.157 -1.52143 84.7189 -10.1808 -1.50562 -3.7719 62.2896 3.7865 8.05329 34.0361 4.14474 -0.217409 178.856 4.95086 89.8921 -23.5177 -19.9015 -9.35055 70.8366 -5.51565 -2.79981 32.0358 0.313338 -4.18644 1.62031 7.18491 -89.471 12.4985 3.47112 0.65624 0.832104 3.49663 0.502653 -21.7331 3.11329 1.67003 -1.72045 3.11328 1.67002 94.2357 -44.0175 -95.2931 3.84711 -37.9394 -45.6482 15.8276 -1.22655 -123.205 16.1077 -2.25328 -20.9981 -103.476 -52.6079 60.0756 -16.5792 17.5782 11.0102 13.3894 -6.04214 -89.5869 4.16365 -0.0800149 -4.18012 6.33162 -1.60405 3.69513 -1.10229 -2.15437 1.59873 
33.6389 97.3932 -242.864 -90.4609 -65.6474 -95.9494 -172.524 -3.44693 83.727 -7.97119 -5.20219 -4.30533 61.6809 3.20408 7.17289 34.2801 4.30957 0.918292 179.478 5.651 89.3305 -26.1972 -22.106 -10.9885 71.2381 -5.67975 -2.84771 32.6279 0.315008 -3.98929 2.02352 7.2227 -89.382 12.4216 4.31441 0.740772 0.757688 4.34285 0.549815 -21.8248 3.89207 2.00497 -1.81211 3.89208 2.00498 93.2284 -43.3195 -97.1061 3.40629 -36.5058 -46.0418 5.62111 2.55072 -122.713 15.6769 -1.69213 -18.5572 -103.661 -52.8836 59.9279 -16.8923 19.2007 10.7984 13.9712 -5.79595 -88.5897 5.82807 -0.0235895 -3.43621 5.14645 -1.7437 5.15959 -0.808531 -2.49179 1.29663 
33.1807 97.4545 -242.829 -90.5425 -63.616 -97.2574 -173.212 -4.98459 82.5412 -5.69521 -7.14839 -4.4636 61.0649 2.32825 7.4709 33.3973 3.60662 0.893909 179.517 6.1574 88.5418 -27.6603 -22.9433 -11.8723 71.1576 -5.61306 -2.80809 33.5212 0.309769 -3.19144 2.42906 7.30018 -89.1809 12.2585 5.21581 1.04969 0.597799 5.25695 0.818494 -22.0045 4.65878 2.57173 -1.99181 4.65878 2.57172 94.2219 -45.4814 -95.0583 -2.34469 -40.3364 -49.4624 23.8018 -4.88905 -123.664 20.2438 -3.46736 -24.061 -103.325 -51.8309 59.9765 -16.5776 21.7309 8.93743 14.2993 -5.58288 -87.0264 4.61238 -0.0790422 -4.18613 5.24471 -0.332626 2.67826 -1.27973 -0.668731 3.38227 
32.988 97.5031 -243.14 -90.9861 -63.5282 -98.3226 -173.241 -4.88575 82.2744 -6.15258 -7.77202 -4.73186 60.6053 1.97253 6.60324 33.8473 3.98399 0.283484 179.282 6.59282 88.1324 -28.5953 -22.8241 -11.9566 71.2702 -5.57672 -2.77862 33.1148 0.303175 -3.2526 2.56609 7.4004 -89.1907 12.0591 5.48351 1.01427 0.3995 5.52284 0.771212 -22.2111 4.92467 2.619 -2.19849 4.92466 2.61897 93.8994 -44.608 -95.7433 0.349181 -40.7548 -47.4454 32.2341 -9.44273 -124.653 23.7296 -4.95205 -27.0453 -103.405 -52.4547 60.1133 -15.4807 23.0541 7.12197 15.1445 -5.00702 -85.3156 3.96215 -0.0785941 -4.15423 2.92866 3.28706 4.3641 -0.346189 2.77588 3.87305 
